<?xml version="1.0" standalone="no"?>
<!DOCTYPE svg PUBLIC "-//W3C//DTD SVG 20010904//EN"
 "http://www.w3.org/TR/2001/REC-SVG-20010904/DTD/svg10.dtd">
<svg version="1.0" xmlns="http://www.w3.org/2000/svg"
 width="1085.000000pt" height="1280.000000pt" viewBox="0 0 1085.000000 1280.000000"
 preserveAspectRatio="xMidYMid meet">
<metadata>
Created by potrace 1.15, written by Peter Selinger 2001-2017
</metadata>
<g transform="translate(0.000000,1280.000000) scale(0.100000,-0.100000)"
fill="#000000" stroke="none">
<path d="M5260 12784 c-98 -26 -161 -63 -240 -143 -113 -114 -170 -249 -170
-406 0 -196 108 -391 271 -492 33 -20 59 -39 59 -44 0 -10 -249 -1151 -255
-1166 -3 -10 -233 -13 -1103 -13 -841 0 -1101 -3 -1110 -12 -9 -9 -12 -110
-12 -395 l0 -383 -255 0 -255 0 -15 -24 c-14 -20 -15 -101 -13 -670 3 -562 5
-648 18 -656 8 -5 75 -10 148 -10 l132 0 0 -519 c0 -459 2 -521 16 -535 14
-14 127 -16 1100 -16 l1084 0 0 -95 0 -95 -54 0 c-32 0 -58 -5 -64 -13 -7 -8
-13 -68 -14 -141 l-3 -127 -299 1 -299 1 -78 73 c-136 128 -294 194 -485 203
-131 7 -217 -6 -327 -49 -254 -98 -440 -327 -488 -603 -11 -67 -8 -251 6 -286
4 -12 -3 -22 -25 -35 -24 -15 -84 -107 -257 -399 -300 -507 -293 -494 -293
-543 0 -23 5 -52 11 -64 9 -21 -8 -54 -146 -288 -86 -145 -159 -279 -162 -298
-3 -18 -11 -35 -17 -37 -6 -2 -38 -11 -71 -21 -112 -34 -226 -125 -297 -239
-28 -45 -64 -141 -73 -197 -6 -36 -6 -36 -73 -47 -265 -42 -365 -53 -388 -42
-36 16 -75 14 -109 -7 -42 -26 -479 -564 -541 -666 -149 -246 -150 -505 -3
-766 30 -53 41 -65 61 -65 21 0 77 63 321 361 162 199 304 363 314 366 29 8
44 -1 173 -106 129 -104 150 -131 132 -168 -6 -13 -139 -180 -296 -371 -157
-192 -286 -357 -286 -367 0 -27 17 -36 109 -59 99 -25 273 -28 361 -7 133 32
269 108 367 205 48 47 395 465 486 584 43 56 48 99 18 156 -14 26 -22 75 -31
181 -6 80 -14 156 -16 170 -4 24 -1 27 58 39 201 41 372 201 422 397 19 72 20
199 2 264 -11 44 -11 46 19 80 16 19 97 148 178 286 l148 251 46 6 c35 4 53
13 78 38 17 19 132 204 255 412 l222 377 49 0 49 0 0 -1238 c0 -950 3 -1241
12 -1250 9 -9 92 -12 311 -12 l299 0 -31 -35 c-41 -47 -69 -103 -82 -165 -22
-104 28 -244 111 -311 l39 -32 -40 -39 c-23 -22 -53 -65 -67 -96 -23 -48 -27
-71 -27 -142 0 -71 4 -94 26 -140 14 -30 43 -71 63 -91 l36 -36 -37 -39 c-20
-21 -48 -64 -62 -94 -22 -46 -26 -69 -26 -145 0 -104 22 -162 86 -226 l38 -38
-36 -38 c-40 -42 -80 -120 -89 -173 l-6 -35 -101 -24 c-293 -71 -540 -204
-733 -395 -149 -148 -234 -287 -283 -465 -23 -82 -36 -220 -23 -239 16 -24 84
-32 377 -43 333 -13 2266 -4 2430 11 61 6 416 5 920 -1 554 -6 974 -6 1295 1
480 10 538 13 599 32 l34 10 -6 92 c-13 211 -102 404 -271 583 -197 208 -450
350 -764 428 -103 25 -112 30 -112 51 0 46 -41 134 -84 177 l-42 44 37 36
c124 118 124 342 1 465 l-40 40 38 37 c125 122 126 339 0 465 l-41 41 44 42
c119 112 141 295 51 429 -19 27 -34 52 -34 54 0 2 94 4 209 4 163 0 211 3 220
13 8 10 12 355 13 1245 l3 1230 224 -378 c123 -209 236 -391 252 -406 19 -18
42 -28 73 -31 l45 -6 148 -251 c81 -138 162 -267 178 -286 30 -34 30 -36 19
-80 -18 -64 -17 -192 2 -264 49 -193 223 -357 422 -397 59 -12 62 -15 58 -39
-2 -14 -10 -90 -16 -170 -9 -106 -17 -155 -31 -181 -30 -57 -25 -100 18 -156
91 -119 438 -537 486 -584 98 -97 234 -173 367 -205 88 -21 262 -18 361 7 92
23 109 32 109 59 0 10 -129 175 -286 367 -157 191 -290 358 -296 371 -18 37 3
64 132 168 129 105 144 114 173 106 10 -3 152 -167 314 -366 244 -298 300
-361 321 -361 20 0 31 12 61 65 147 261 146 520 -3 766 -62 102 -499 640 -541
666 -34 21 -73 23 -109 7 -23 -11 -123 0 -388 42 -67 11 -67 11 -73 47 -9 56
-45 152 -73 197 -71 114 -185 205 -297 239 -33 10 -65 19 -71 21 -6 2 -14 19
-17 38 -3 18 -76 153 -162 298 -138 233 -155 266 -146 287 6 13 11 41 11 64 0
49 7 35 -293 542 -170 287 -232 383 -256 398 -22 14 -30 26 -26 37 3 8 9 58
12 111 14 235 -64 440 -231 605 -91 90 -186 148 -311 192 -73 25 -93 27 -230
28 -130 0 -160 -3 -225 -23 -121 -38 -223 -97 -309 -178 l-78 -73 -194 -1
-194 -2 -3 133 c-2 91 -6 136 -15 141 -7 4 -38 8 -69 8 l-58 0 0 95 0 95 1030
0 c1017 0 1030 0 1050 20 19 19 20 33 20 535 l0 515 130 0 c118 0 130 2 140
19 6 13 10 237 10 658 0 562 -2 641 -16 661 -15 22 -18 22 -280 22 l-264 0 0
383 c0 285 -3 386 -12 395 -9 9 -292 12 -1210 12 -659 0 -1198 4 -1198 8 0 8
-226 1107 -236 1148 -4 17 5 26 58 52 162 81 278 252 296 438 15 149 -15 275
-95 396 -122 185 -349 276 -553 222z m340 -9741 c0 -5 -13 -23 -28 -40 l-27
-33 -33 40 -33 40 60 0 c34 0 61 -3 61 -7z m-4 -555 l-49 -47 -43 37 c-24 20
-44 38 -44 40 0 2 13 15 30 28 16 14 37 38 47 54 l16 28 46 -46 46 -47 -49
-47z m-4 -478 l30 -30 -34 -39 c-18 -22 -35 -40 -38 -40 -3 0 -20 13 -37 29
l-33 30 38 40 c20 21 38 39 40 40 2 0 17 -14 34 -30z m27 -570 c0 -3 -16 -22
-35 -43 l-36 -39 -31 29 c-18 15 -33 29 -35 29 -1 1 14 19 35 40 l38 39 32
-25 c17 -14 32 -27 32 -30z"/>
</g>
</svg>
